<?xml version="1.0" encoding="utf-8"?>
<!-- Generator: Adobe Illustrator 18.1.1, SVG Export Plug-In . SVG Version: 6.00 Build 0)  -->
<svg version="1.1" id="Layer_1" xmlns="http://www.w3.org/2000/svg" xmlns:xlink="http://www.w3.org/1999/xlink" x="0px" y="0px"
	 viewBox="0 0 240.9 105.8" enable-background="new 0 0 240.9 105.8" xml:space="preserve">
<g>
	<linearGradient id="SVGID_1_" gradientUnits="userSpaceOnUse" x1="22.9313" y1="-20.4869" x2="22.9313" y2="140.0006">
		<stop  offset="0" style="stop-color:#FFFFFF"/>
		<stop  offset="1" style="stop-color:#438DCC"/>
	</linearGradient>
	<path fill="url(#SVGID_1_)" d="M45.9,19.6c0,3.3-0.6,6.3-1.8,8.9s-2.9,4.7-5,6.4c-2.1,1.7-4.5,3-7.3,3.9c-2.8,0.9-5.7,1.3-8.9,1.3
		H2.5V79H0V0h21.4c2.8,0,5.7,0.3,8.6,0.9c2.9,0.6,5.5,1.7,7.9,3.2c2.3,1.5,4.3,3.5,5.7,6C45.1,12.7,45.9,15.8,45.9,19.6z M43.4,19.6
		c0-3.3-0.6-6.1-1.9-8.4c-1.3-2.2-2.9-4-4.9-5.4c-2-1.3-4.3-2.3-6.8-2.9c-2.5-0.6-5-0.9-7.4-0.9h-20v35.9H23c2.5,0,4.9-0.3,7.4-1
		c2.5-0.7,4.6-1.7,6.6-3.2c1.9-1.5,3.5-3.4,4.7-5.7C42.8,25.7,43.4,22.9,43.4,19.6z"/>
	<linearGradient id="SVGID_2_" gradientUnits="userSpaceOnUse" x1="72.7546" y1="-20.4869" x2="72.7546" y2="140.0006">
		<stop  offset="0" style="stop-color:#FFFFFF"/>
		<stop  offset="1" style="stop-color:#438DCC"/>
	</linearGradient>
	<path fill="url(#SVGID_2_)" d="M91.9,67.4c0,1.9,0.1,4,0.3,6.2c0.2,2.2,0.4,4,0.6,5.4h-2.3c-0.1-0.7-0.3-1.7-0.3-2.7
		c-0.1-1.1-0.2-2.2-0.3-3.3c-0.1-1.2-0.2-2.3-0.2-3.4c0-1.1-0.1-2-0.1-2.8h-0.3c-1.5,4.7-4.1,8.2-7.7,10.4
		c-3.6,2.3-7.6,3.4-11.7,3.4c-2.1,0-4.1-0.3-6.2-0.9c-2-0.6-3.9-1.5-5.5-2.7c-1.6-1.2-3-2.7-4-4.6c-1-1.9-1.5-4.1-1.5-6.6
		c0-3.6,0.9-6.6,2.8-8.8c1.9-2.2,4.3-4,7.1-5.2c2.8-1.2,5.9-2,9.1-2.4c3.2-0.4,6.2-0.6,8.9-0.6h8.9v-4.1c0-5.7-1.5-9.9-4.6-12.6
		c-3.1-2.6-7-4-11.9-4c-3.1,0-5.9,0.6-8.5,1.7c-2.6,1.1-5,2.6-7.1,4.5L56,32.5c2.4-2.1,5.1-3.7,8.1-4.7c3-1.1,6-1.6,8.9-1.6
		c5.9,0,10.5,1.5,13.9,4.5c3.4,3,5.1,7.8,5.1,14.2V67.4z M89.5,51h-7.9c-2.8,0-5.8,0.2-8.9,0.5c-3.1,0.3-6,1-8.6,2.1
		c-2.6,1-4.7,2.5-6.4,4.5c-1.7,1.9-2.5,4.5-2.5,7.8c0,2.4,0.5,4.4,1.4,6c0.9,1.6,2.1,2.9,3.6,3.9c1.5,1,3,1.7,4.8,2.1
		c1.7,0.4,3.4,0.7,5,0.7c3.8,0,7-0.7,9.5-2.1c2.5-1.4,4.6-3.2,6.1-5.4c1.5-2.2,2.6-4.6,3.2-7.3c0.6-2.6,0.9-5.2,0.9-7.8V51z"/>
	<linearGradient id="SVGID_3_" gradientUnits="userSpaceOnUse" x1="139.594" y1="-20.4869" x2="139.594" y2="140.0006">
		<stop  offset="0" style="stop-color:#FFFFFF"/>
		<stop  offset="1" style="stop-color:#438DCC"/>
	</linearGradient>
	<path fill="url(#SVGID_3_)" d="M116.7,41.6c2.2-5.1,5.4-9,9.5-11.6c4.1-2.6,8.6-3.9,13.5-3.9c3.8,0,7.3,0.7,10.4,2.1
		c3.2,1.4,5.9,3.3,8.1,5.7c2.3,2.4,4,5.3,5.2,8.6c1.2,3.3,1.8,7,1.8,10.9c0,3.9-0.6,7.5-1.9,10.8c-1.3,3.3-3,6.2-5.3,8.6
		c-2.3,2.4-5,4.3-8.1,5.7c-3.2,1.4-6.6,2.1-10.3,2.1c-2.4,0-4.8-0.3-7.2-1c-2.3-0.7-4.5-1.7-6.5-3c-2-1.3-3.8-2.9-5.5-4.8
		c-1.6-1.9-2.9-4.1-3.9-6.6h-0.3v40.6h-2.6V27.7h2.6v13.9H116.7z M162.9,53.4c0-3.3-0.5-6.5-1.6-9.6c-1.1-3-2.6-5.7-4.6-8
		c-2-2.3-4.4-4.1-7.3-5.5c-2.9-1.4-6.1-2.1-9.6-2.1c-3.4,0-6.6,0.7-9.4,2c-2.9,1.3-5.3,3.1-7.4,5.4c-2.1,2.3-3.7,4.9-4.9,8
		c-1.2,3.1-1.8,6.3-1.8,9.7s0.6,6.7,1.8,9.7c1.2,3.1,2.8,5.7,4.9,8c2.1,2.3,4.5,4.1,7.4,5.4c2.9,1.3,6,2,9.4,2c3.6,0,6.8-0.7,9.6-2
		c2.9-1.3,5.3-3.1,7.3-5.4c2-2.3,3.5-4.9,4.6-8C162.4,60,162.9,56.8,162.9,53.4z"/>
	<linearGradient id="SVGID_4_" gradientUnits="userSpaceOnUse" x1="186.7937" y1="-20.4869" x2="186.7937" y2="140.0006">
		<stop  offset="0" style="stop-color:#FFFFFF"/>
		<stop  offset="1" style="stop-color:#438DCC"/>
	</linearGradient>
	<path fill="url(#SVGID_4_)" d="M194.3,72.3c0,1.9-0.7,3.6-2.1,5.1c-1.4,1.5-3.2,2.2-5.4,2.2c-2.1,0-3.8-0.7-5.3-2.2
		c-1.5-1.5-2.2-3.1-2.2-5.1c0-2,0.7-3.7,2.1-5.2c1.4-1.5,3.2-2.2,5.4-2.2s3.9,0.7,5.4,2.1C193.6,68.6,194.3,70.3,194.3,72.3z"/>
	<linearGradient id="SVGID_5_" gradientUnits="userSpaceOnUse" x1="225.4016" y1="-20.4869" x2="225.4016" y2="140.0006">
		<stop  offset="0" style="stop-color:#FFFFFF"/>
		<stop  offset="1" style="stop-color:#438DCC"/>
	</linearGradient>
	<path fill="url(#SVGID_5_)" d="M210.2,32c-0.1-2.2-0.2-4.2-0.3-5.9h9.9c0.1,1.3,0.3,2.9,0.3,4.6c0.1,1.7,0.1,3.2,0.1,4.3h0.3
		c1.5-3.1,3.7-5.6,6.5-7.5c2.9-1.9,6.1-2.8,9.7-2.8c1.6,0,3,0.1,4.1,0.4l-0.4,9.7c-1.5-0.4-3.1-0.6-4.8-0.6c-2.5,0-4.7,0.5-6.6,1.4
		c-1.9,0.9-3.4,2.2-4.6,3.7c-1.2,1.6-2.1,3.4-2.7,5.4c-0.6,2-0.9,4.2-0.9,6.4V79h-10.5V37.5C210.3,36.1,210.3,34.3,210.2,32z"/>
</g>
</svg>
